<svg version="1.1" id="Layer_1" xmlns="http://www.w3.org/2000/svg" xmlns:xlink="http://www.w3.org/1999/xlink" x="0px" y="0px"
	 width="100%" viewBox="0 0 653 385" enable-background="new 0 0 653 385" xml:space="preserve">
<path fill="#F6F6F6" opacity="1.000000" stroke="none" 
	d="
M398.000000,386.000000 
	C265.761292,386.000000 133.522583,386.000000 1.000000,386.000000 
	C1.000000,314.646027 1.000000,243.291672 1.342031,171.546509 
	C3.511430,171.457489 5.528852,172.401840 7.127150,171.929092 
	C10.603365,170.900940 13.938503,169.296234 17.204771,167.672638 
	C70.481865,141.189621 123.740685,114.669846 176.993164,88.137360 
	C178.472000,87.400551 180.285339,86.734741 181.126526,85.486008 
	C181.982712,84.215050 182.417908,82.045815 181.915146,80.684334 
	C181.564178,79.733849 179.183273,78.804451 177.955505,79.058159 
	C175.414612,79.583199 173.038055,80.903519 170.328644,81.542732 
	C169.865250,80.970161 169.667145,80.751656 169.574203,80.148422 
	C172.058701,68.655762 171.519058,65.864807 166.193222,64.477188 
	C165.854645,68.320297 165.180542,72.087090 165.267227,75.836296 
	C165.424026,82.618164 162.681030,86.554512 156.278809,89.502945 
	C137.121658,98.325470 118.306908,107.891479 99.008194,117.018112 
	C97.193726,116.558533 95.729546,116.248062 93.997604,115.704697 
	C87.990906,113.418816 82.378159,110.818657 76.479492,109.458176 
	C69.842255,107.927330 63.767612,111.476891 62.241047,118.137878 
	C60.963802,123.710968 61.470856,129.692978 61.137947,136.515457 
	C51.078728,141.509674 39.464439,147.196472 27.924654,153.030624 
	C18.901848,157.592316 9.971456,162.336761 0.999998,167.000000 
	C1.000000,111.736694 1.000000,56.473392 1.000000,1.000000 
	C60.687397,1.000000 120.375038,1.000000 180.358490,1.344349 
	C162.036041,6.916893 150.115753,19.000864 144.386307,37.225735 
	C140.864288,26.544170 145.918259,16.865276 148.473129,6.734624 
	C147.111099,7.081887 146.137314,7.560451 145.873459,8.294276 
	C143.862656,13.886818 140.780777,19.448292 140.397614,25.177622 
	C139.969910,31.572979 141.657150,38.222626 143.148010,44.592102 
	C144.076859,48.560448 148.742050,49.201569 150.991898,47.516487 
	C153.999725,45.263714 154.499466,44.992271 155.564743,48.659210 
	C155.907883,49.840385 157.950851,51.017334 159.388092,51.289932 
	C162.452911,51.871235 165.630203,51.859547 169.006378,52.476082 
	C168.282562,53.255451 167.317245,53.980618 166.344482,53.990761 
	C159.223358,54.065014 152.043457,53.428936 144.995651,54.140926 
	C138.693390,54.777592 132.493881,56.697601 126.344101,58.395634 
	C124.746933,58.836632 123.505402,60.565578 122.100525,61.702950 
	C122.303528,62.089336 122.506531,62.475719 122.709534,62.862103 
	C123.693390,62.735161 124.781387,62.837757 125.645058,62.445915 
	C134.694931,58.340069 144.148819,57.745045 153.885635,58.759441 
	C159.488632,59.343163 165.137909,59.625614 170.769455,59.672581 
	C171.907974,59.682076 173.491028,58.221752 174.031082,57.052113 
	C174.315903,56.435238 172.757523,55.004185 172.100342,53.899712 
	C171.778534,53.358898 171.614182,52.724403 171.806580,52.257217 
	C177.992447,51.934040 183.750275,51.485954 189.508118,51.037868 
	C189.485519,50.267998 189.462921,49.498131 189.440338,48.728260 
	C185.429016,48.728260 181.412628,48.854546 177.407761,48.693653 
	C173.186783,48.524078 168.976822,48.080246 163.310623,47.644665 
	C165.632233,46.147541 166.581177,45.568310 167.496582,44.940182 
	C175.946899,39.141838 183.253662,32.124008 188.375412,23.243162 
	C194.319611,12.936218 191.880005,5.207498 182.000000,1.000000 
	C339.227539,1.000000 496.455078,1.000000 654.000000,1.000000 
	C654.000000,60.353851 654.000000,119.708267 653.728638,179.544434 
	C653.281738,180.070984 653.106201,180.115784 652.474731,180.061890 
	C627.035034,179.989609 602.051392,180.016022 576.971130,179.579590 
	C576.862366,175.966339 576.851929,172.815933 576.837708,169.665543 
	C576.745300,149.112488 576.652100,128.559418 576.617065,107.808945 
	C576.515442,107.292007 576.284058,107.226646 575.527100,107.297577 
	C551.717285,107.213120 528.361023,107.246544 504.752228,107.191971 
	C504.331787,107.164078 504.163940,107.224167 503.674438,107.223953 
	C502.921448,107.210411 502.490143,107.257179 501.633942,107.227814 
	C500.767181,108.244553 499.944458,109.336243 499.941071,110.430481 
	C499.897247,124.568581 499.970093,138.707047 499.936401,152.863297 
	C499.859344,152.881180 499.827789,153.036148 499.374756,153.057373 
	C473.831360,153.078583 448.740967,153.078583 422.855957,153.078583 
	C422.855957,167.201843 422.855957,180.636551 422.474091,193.939301 
	C421.283203,193.670563 420.474213,193.414703 419.665131,193.414368 
	C395.417450,193.404678 371.169769,193.420212 346.902405,192.936340 
	C346.882751,167.721649 346.882751,143.002426 346.882751,118.230377 
	C308.328308,118.230377 270.728241,118.230377 232.778229,118.230377 
	C232.778229,173.092651 232.778229,227.750229 232.778229,282.746918 
	C270.788391,282.746918 308.393158,282.746918 346.104675,283.223602 
	C346.252594,290.511810 346.298981,297.323334 346.333466,304.134888 
	C346.365204,310.402679 346.573120,310.616486 352.760315,310.615356 
	C374.196228,310.611389 395.634064,310.453949 417.066620,310.721161 
	C422.027222,310.783020 423.262451,309.144592 423.209869,304.466583 
	C423.055176,290.691772 423.335815,276.912079 423.881592,263.128235 
	C449.434174,263.122162 474.551239,263.122162 499.759277,263.122162 
	C499.971405,259.603088 500.139496,256.814270 500.747131,254.037964 
	C526.324341,254.001556 551.461975,253.952637 576.696533,254.368652 
	C576.793335,266.869110 576.793335,278.904633 576.793335,291.217773 
	C579.257263,291.217773 580.742371,291.223083 582.227539,291.216949 
	C605.809814,291.119507 629.392090,291.020660 653.227783,290.981079 
	C653.654114,291.026703 653.827087,291.013336 654.000000,291.000000 
	C654.000000,322.625641 654.000000,354.251251 654.000000,386.000000 
	C573.312500,386.000000 492.624908,386.000000 411.606506,385.597351 
	C411.656555,378.883453 412.037445,372.572266 412.429871,366.069946 
	C415.316315,366.069946 417.811340,366.185913 420.292572,366.050079 
	C431.770477,365.421570 438.846619,359.425751 440.009247,349.437439 
	C441.673431,335.139557 436.548553,324.702728 425.056732,322.171448 
	C416.450592,320.275787 407.383636,320.472168 398.000000,319.693787 
	C398.000000,342.554626 398.000000,364.277313 398.000000,386.000000 
M182.352844,281.957886 
	C181.239197,277.783264 180.248413,273.570618 178.973022,269.446014 
	C177.954346,266.151642 178.896683,263.675049 180.536316,260.670044 
	C184.977768,252.530045 189.433334,244.266357 192.582153,235.580048 
	C198.968597,217.962402 198.426804,199.969025 193.178726,182.089493 
	C191.880569,177.666870 189.672607,174.096176 184.043457,175.224014 
	C184.448135,173.077225 185.094818,171.125061 185.108093,169.168594 
	C185.121902,167.133896 184.799652,164.995728 184.112518,163.087051 
	C183.475067,161.316360 181.473999,159.871078 181.267136,158.139862 
	C180.424973,151.092316 178.738861,144.458801 173.877487,138.836136 
	C176.116852,136.112198 178.436615,133.693878 180.279984,130.954956 
	C183.142044,126.702484 186.270828,122.478500 188.224625,117.799049 
	C191.667648,109.552834 188.548401,99.347519 181.454514,94.708870 
	C179.824432,93.642982 177.126236,94.210617 174.919586,94.026497 
	C175.787384,95.930565 176.159241,98.470169 177.622086,99.611725 
	C181.097672,102.323959 182.874054,105.577110 182.745041,109.856018 
	C182.410355,120.956017 173.557465,132.938919 162.944885,136.875183 
	C162.272232,137.124695 161.550583,137.599472 161.152252,138.176804 
	C156.186295,145.374191 149.977066,145.879440 144.040588,139.739105 
	C138.962677,134.486801 133.739929,129.367142 128.410370,124.371078 
	C127.186783,123.224068 125.263374,122.823578 123.015602,121.779167 
	C123.279198,123.372597 123.195930,123.968048 123.454842,124.272507 
	C128.840134,130.604965 134.297455,136.876282 139.671204,143.218414 
	C144.852127,149.332977 151.332886,151.480728 158.896240,148.978943 
	C162.708298,147.718018 166.180511,145.429611 170.272278,143.371460 
	C171.381882,145.959183 173.060333,148.431458 173.468384,151.098129 
	C174.647919,158.806458 175.076553,166.629288 176.244141,174.339905 
	C177.794861,184.580719 172.357391,191.041077 164.921661,196.521637 
	C162.252274,198.489136 159.296463,200.064148 156.560791,201.948135 
	C155.796341,202.474564 155.350708,203.463974 154.758835,204.240997 
	C163.645416,203.333862 169.658844,197.938782 176.041748,191.644867 
	C175.777664,194.742447 175.651062,196.732941 175.432465,198.713272 
	C173.185181,219.072113 170.374329,239.398895 173.277863,259.961395 
	C173.541870,261.831024 172.638733,264.286316 171.464096,265.863892 
	C166.897141,271.997406 161.974808,277.865204 157.248795,283.882233 
	C156.143433,285.289520 155.289383,286.894226 154.319717,288.408112 
	C154.914062,288.899048 155.508408,289.389984 156.102768,289.880920 
	C162.414291,283.050201 168.725815,276.219513 175.188828,269.224854 
	C180.733688,288.047821 186.278427,299.964966 191.525070,303.142700 
	C188.358109,295.816833 185.519211,289.249817 182.352844,281.957886 
M288.013733,315.587097 
	C289.786957,314.171356 291.560181,312.755615 293.443909,311.251648 
	C289.066010,304.049835 283.578308,299.060547 275.751404,296.906830 
	C252.501572,290.509277 230.730484,308.103149 231.542679,332.652252 
	C232.119247,350.080292 242.319183,363.726990 257.461395,366.899475 
	C271.731384,369.889160 284.504608,366.326874 295.781860,357.259888 
	C296.821289,356.424194 297.946838,354.960754 297.993103,353.749115 
	C298.220367,347.797760 298.096283,341.832977 298.096283,335.373444 
	C294.873474,335.373444 292.077362,335.373444 289.281219,335.373444 
	C286.512634,335.373444 283.744049,335.373444 280.579407,335.373444 
	C280.579407,341.164276 280.876312,346.325165 280.424774,351.419708 
	C280.257782,353.304016 278.757660,355.793121 277.134583,356.703949 
	C268.820953,361.369415 259.163361,358.023621 254.645355,348.635590 
	C249.055267,337.019897 249.606506,325.055145 254.529266,313.344025 
	C256.561462,308.509552 260.387024,305.398773 265.812042,304.484039 
	C272.926147,303.284546 278.892426,306.532745 283.731384,314.454102 
	C284.585388,315.852112 284.937561,318.445740 288.013733,315.587097 
M463.936951,349.556030 
	C463.936951,347.640656 463.936951,345.725311 463.936951,343.822388 
	C467.629517,343.822388 470.589691,343.822388 474.056763,343.822388 
	C474.056763,351.218658 474.056763,358.454407 474.056763,365.865295 
	C478.951019,365.865295 483.334412,365.865295 487.837158,365.865295 
	C487.837158,350.682861 487.837158,335.776794 487.837158,320.689209 
	C483.211182,320.689209 478.815277,320.689209 473.990448,320.689209 
	C473.990448,325.928284 473.990448,330.850159 473.990448,335.869293 
	C470.480896,335.869293 467.406036,335.869293 463.769653,335.869293 
	C463.769653,321.279236 463.769653,306.915558 463.769653,292.476227 
	C458.942444,292.476227 454.684631,292.476227 450.227173,292.476227 
	C450.227173,317.085938 450.227173,341.449707 450.227173,365.794281 
	C454.888580,365.794281 459.269165,365.794281 463.936859,365.794281 
	C463.936859,360.481842 463.936859,355.510956 463.936951,349.556030 
M343.027374,330.524902 
	C341.907715,325.350067 338.362610,322.031891 333.520813,321.473877 
	C324.853973,320.475128 316.075012,320.449799 307.376709,320.019226 
	C307.376709,336.008759 307.376709,350.930450 307.376709,365.840088 
	C311.768646,365.840088 315.844971,365.840088 320.320435,365.840088 
	C320.320435,352.776093 320.320435,340.012299 320.320435,327.200562 
	C324.864532,326.448578 327.920776,327.595245 329.225311,331.930481 
	C330.818298,337.224457 328.997894,340.446259 321.943390,344.667480 
	C324.799652,351.009979 327.582336,357.407410 330.604736,363.689514 
	C331.120056,364.760681 332.623260,365.965057 333.735840,366.033112 
	C338.133789,366.302185 342.557892,366.143585 347.876617,366.143585 
	C343.492828,358.865173 339.600189,352.402130 335.585175,345.736023 
	C342.601929,342.913544 343.992096,337.647308 343.027374,330.524902 
M364.019409,321.438965 
	C362.559998,324.937958 360.822662,328.349792 359.692841,331.952148 
	C356.188995,343.123840 352.916138,354.367981 349.446533,365.941284 
	C352.230927,365.941284 354.343475,365.941284 356.395416,365.941284 
	C359.360291,358.046539 359.360291,358.046539 361.981628,357.923676 
	C371.958252,357.456024 371.958252,357.456024 376.001648,365.846252 
	C380.613373,365.846252 385.186127,365.846252 390.118256,365.846252 
	C385.939575,352.157898 382.045990,338.785187 377.738800,325.547028 
	C375.485779,318.622375 370.943481,317.260437 364.019409,321.438965 
M540.061035,350.892731 
	C540.509888,344.474060 540.560669,337.991974 541.568909,331.662415 
	C542.104553,328.300049 545.003479,325.278473 548.744812,326.154755 
	C551.388184,326.773895 553.633179,329.331390 555.892456,331.219360 
	C556.651611,331.853729 556.906372,333.091614 557.446960,334.163086 
	C559.520874,332.848755 561.296021,331.723846 563.017944,330.632568 
	C560.412659,323.337433 555.447937,319.720612 548.349426,319.059723 
	C539.797363,318.263519 532.798889,321.365967 528.403198,328.741150 
	C522.780518,338.174988 522.754150,348.155914 527.993530,357.742584 
	C532.135193,365.320770 539.082214,368.661774 547.653870,367.779053 
	C555.522217,366.968719 560.361755,362.124359 563.453918,354.739258 
	C561.564697,353.605225 559.972534,352.649536 558.249756,351.615387 
	C555.857910,356.711029 553.251953,360.975769 547.478516,360.593353 
	C542.272339,360.248566 541.163208,355.913788 540.061035,350.892731 
M506.598755,320.369354 
	C504.818756,320.369354 503.038757,320.369354 501.200684,320.369354 
	C501.200684,335.900726 501.200684,350.826965 501.200684,365.839600 
	C505.837494,365.839600 510.225494,365.839600 514.681030,365.839600 
	C514.681030,350.638275 514.681030,335.736115 514.681030,320.370392 
	C512.126343,320.370392 509.825287,320.370392 506.598755,320.369354 
M142.071335,310.527710 
	C132.016953,301.320923 121.962570,292.114136 111.908180,282.907349 
	C112.288895,286.712250 112.871284,291.085327 115.256920,293.963989 
	C128.610107,310.076965 145.506241,320.750671 166.126846,325.129608 
	C167.348145,325.388947 168.750320,324.796631 170.792786,324.492889 
	C160.721695,319.629517 151.703125,315.274384 142.071335,310.527710 
M116.345795,246.105286 
	C119.361893,234.818085 123.804451,224.432800 133.765427,217.287994 
	C134.794449,216.549881 134.927109,214.562134 135.475693,213.154236 
	C133.824814,212.813171 132.073685,211.970078 130.551620,212.274033 
	C129.067688,212.570358 127.415154,213.762238 126.534500,215.041397 
	C122.524673,220.865662 117.791344,226.453873 115.106293,232.874710 
	C109.136101,247.151428 109.384758,262.437469 110.103119,277.623566 
	C110.142822,278.462830 111.024719,279.262207 112.037399,280.953033 
	C113.501884,268.805573 114.821350,257.861084 116.345795,246.105286 
M140.868973,187.894211 
	C141.862640,190.904282 142.856308,193.914337 143.849976,196.924408 
	C144.364365,196.855835 144.878754,196.787262 145.393143,196.718689 
	C145.480225,195.417908 145.906754,194.027206 145.590424,192.833298 
	C144.659515,189.319901 144.103409,185.446167 142.181778,182.511612 
	C138.397415,176.732376 134.229950,171.065384 129.429367,166.120422 
	C120.690948,157.119217 113.665939,147.625397 114.602570,134.223450 
	C114.694832,132.903366 114.057976,131.532333 113.612793,129.522430 
	C108.921997,133.356430 109.753006,137.748535 110.336601,141.895584 
	C111.930138,153.219452 118.883438,161.350983 126.425652,169.332535 
	C131.621231,174.830750 135.889832,181.204926 140.868973,187.894211 
M85.944588,153.493896 
	C88.289124,148.951309 90.633659,144.408737 92.978195,139.866150 
	C92.408348,139.490631 91.838501,139.115112 91.268661,138.739609 
	C89.825432,140.316605 88.072144,141.707504 86.994064,143.503677 
	C82.897697,150.328568 79.102432,157.334213 75.003815,164.157715 
	C73.930145,165.945175 72.393539,167.660843 70.667320,168.799973 
	C68.299202,170.362701 66.168991,170.046661 65.853371,166.546524 
	C65.554985,163.237442 65.392265,159.908539 64.908600,156.626862 
	C64.657074,154.920349 63.841293,153.297012 62.985455,150.762726 
	C60.411118,155.501114 60.807789,169.031738 63.547661,171.312668 
	C65.275208,172.750793 68.662178,173.869583 70.490196,173.126831 
	C73.343437,171.967529 75.968132,169.448029 77.853653,166.888901 
	C80.790413,162.902969 83.026352,158.400681 85.944588,153.493896 
M129.289902,343.802551 
	C127.964790,349.832886 128.736191,355.566681 130.938965,361.359436 
	C132.362411,365.102783 132.725098,369.249512 133.563156,373.215454 
	C133.894882,374.125336 136.234909,374.492493 137.002670,373.562103 
	C137.898499,372.476593 137.660263,370.229279 137.460236,368.539795 
	C137.311523,367.283752 136.545944,366.050415 135.872772,364.915070 
	C131.940353,358.282745 130.997879,351.235718 132.876587,343.801392 
	C134.420563,337.691681 136.234772,331.641266 137.510300,325.477875 
	C137.915421,323.520203 136.973785,321.283813 136.648453,319.174988 
	C135.118835,319.836975 134.756958,320.236359 134.650833,320.694916 
	C132.931442,328.124451 131.244476,335.561493 129.289902,343.802551 
M179.984680,328.913086 
	C178.735153,327.405640 177.485611,325.898163 176.417831,324.609985 
	C175.334167,329.275696 175.227066,333.473663 173.419571,336.726807 
	C169.856552,343.139557 167.684021,349.661011 167.702713,357.015503 
	C167.717148,362.696808 165.022629,366.140381 159.606796,368.177673 
	C158.333755,368.656525 157.059082,369.131012 154.545670,370.071167 
	C156.576675,370.801453 157.355774,371.345459 158.108475,371.311127 
	C165.021774,370.995819 170.710571,365.566864 170.859375,358.532684 
	C171.011963,351.319214 172.924515,344.977448 177.099258,339.012115 
	C178.875351,336.474243 179.122177,332.866150 179.984680,328.913086 
M515.155151,300.713562 
	C514.685547,297.025269 512.816589,294.543793 509.009399,293.964569 
	C504.991333,293.353302 501.515869,296.060791 500.864227,300.148529 
	C500.122314,304.802673 502.812012,308.800232 507.029846,309.312164 
	C511.555542,309.861450 514.373901,307.177490 515.155151,300.713562 
z"/>
<path fill="#323130" opacity="1.000000" stroke="none" 
	d="
M170.593933,81.896790 
	C173.038055,80.903519 175.414612,79.583199 177.955505,79.058159 
	C179.183273,78.804451 181.564178,79.733849 181.915146,80.684334 
	C182.417908,82.045815 181.982712,84.215050 181.126526,85.486008 
	C180.285339,86.734741 178.472000,87.400551 176.993164,88.137360 
	C123.740685,114.669846 70.481865,141.189621 17.204771,167.672638 
	C13.938503,169.296234 10.603365,170.900940 7.127150,171.929092 
	C5.528852,172.401840 3.511430,171.457489 1.342031,171.077850 
	C1.000000,169.933334 1.000000,168.866653 0.999998,167.399994 
	C9.971456,162.336761 18.901848,157.592316 27.924654,153.030624 
	C39.464439,147.196472 51.078728,141.509674 61.137947,136.515457 
	C61.470856,129.692978 60.963802,123.710968 62.241047,118.137878 
	C63.767612,111.476891 69.842255,107.927330 76.479492,109.458176 
	C82.378159,110.818657 87.990906,113.418816 93.968666,115.871429 
	C94.207489,116.271042 94.154572,116.605309 94.101303,116.952499 
	C94.032021,117.533310 94.016014,117.766937 93.600464,118.037994 
	C87.348701,116.957359 81.533684,115.250885 75.634331,114.877693 
	C69.013405,114.458847 65.974251,118.032906 65.844482,124.659485 
	C65.792412,127.318649 65.734413,129.977692 65.482674,132.725327 
	C65.686501,133.125504 66.086761,133.437149 66.828278,133.632294 
	C77.899178,128.066284 88.628822,122.616745 99.358475,117.167213 
	C118.306908,107.891479 137.121658,98.325470 156.278809,89.502945 
	C162.681030,86.554512 165.424026,82.618164 165.267227,75.836296 
	C165.180542,72.087090 165.854645,68.320297 166.193222,64.477188 
	C171.519058,65.864807 172.058701,68.655762 169.406906,80.385796 
	C169.230621,81.558052 169.326767,82.108208 169.422913,82.658371 
	C169.813248,82.404503 170.203583,82.150650 170.593933,81.896790 
z"/>
<path fill="#2E2D2B" opacity="1.000000" stroke="none" 
	d="
M398.463196,386.000000 
	C398.000000,364.277313 398.000000,342.554626 398.000000,319.693787 
	C407.383636,320.472168 416.450592,320.275787 425.056732,322.171448 
	C436.548553,324.702728 441.673431,335.139557 440.009247,349.437439 
	C438.846619,359.425751 431.770477,365.421570 420.292572,366.050079 
	C417.811340,366.185913 415.316315,366.069946 412.429871,366.069946 
	C412.037445,372.572266 411.656555,378.883453 411.137817,385.597351 
	C406.975464,386.000000 402.950897,386.000000 398.463196,386.000000 
M415.717346,359.427582 
	C421.064423,358.518982 424.095398,355.016846 424.542816,349.971497 
	C424.977264,345.072357 424.936829,339.959137 424.003296,335.153931 
	C422.821472,329.070404 418.755890,326.822968 411.978638,327.394562 
	C411.978638,337.347443 412.035919,347.328491 411.936981,357.307953 
	C411.913239,359.704956 412.870422,360.220337 415.717346,359.427582 
z"/>
<path fill="#343433" opacity="1.000000" stroke="none" 
	d="
M181.750000,1.000000 
	C191.880005,5.207498 194.319611,12.936218 188.375412,23.243162 
	C183.253662,32.124008 175.946899,39.141838 167.496582,44.940182 
	C166.581177,45.568310 165.632233,46.147541 163.310623,47.644665 
	C168.976822,48.080246 173.186783,48.524078 177.407761,48.693653 
	C181.412628,48.854546 185.429016,48.728260 189.440338,48.728260 
	C189.462921,49.498131 189.485519,50.267998 189.508118,51.037868 
	C183.750275,51.485954 177.992447,51.934040 171.370636,52.209858 
	C169.924911,52.055336 169.343170,52.073086 168.761414,52.090836 
	C165.630203,51.859547 162.452911,51.871235 159.388092,51.289932 
	C157.950851,51.017334 155.907883,49.840385 155.564743,48.659210 
	C154.499466,44.992271 153.999725,45.263714 150.991898,47.516487 
	C148.742050,49.201569 144.076859,48.560448 143.148010,44.592102 
	C141.657150,38.222626 139.969910,31.572979 140.397614,25.177622 
	C140.780777,19.448292 143.862656,13.886818 145.873459,8.294276 
	C146.137314,7.560451 147.111099,7.081887 148.473129,6.734624 
	C145.918259,16.865276 140.864288,26.544170 144.386307,37.225735 
	C150.115753,19.000864 162.036041,6.916893 180.827148,1.344349 
	C181.000000,1.000000 181.500000,1.000000 181.750000,1.000000 
M166.346558,36.803322 
	C164.321106,38.417889 162.295654,40.032459 160.270187,41.647026 
	C163.088867,41.643951 165.983414,41.239586 167.672668,39.596252 
	C173.250458,34.170044 178.579407,28.453747 183.599655,22.507534 
	C185.327957,20.460447 186.302734,17.501570 186.865814,14.801567 
	C188.189270,8.455777 184.399353,4.619318 178.379013,6.780039 
	C165.279205,11.481602 155.454453,20.108175 150.664352,33.478714 
	C149.703278,36.161324 150.525528,39.482815 150.525528,42.509731 
	C152.581970,38.397274 153.350586,34.267056 154.970139,30.502951 
	C156.375717,27.236109 158.278931,23.867214 160.860382,21.539482 
	C162.442261,20.113085 166.102219,19.634272 168.109085,20.466303 
	C169.709732,21.129927 171.314651,24.614170 170.978165,26.500355 
	C170.371613,29.900438 168.313644,33.041595 166.346558,36.803322 
z"/>
<path fill="#FEBA7E" opacity="1.000000" stroke="none" 
	d="
M652.930725,180.160583 
	C653.106201,180.115784 653.281738,180.070984 653.728638,180.013092 
	C654.000000,216.687561 654.000000,253.375122 654.000000,290.531342 
	C653.827087,291.013336 653.654114,291.026703 653.218323,290.519165 
	C652.947205,253.385681 652.938965,216.773132 652.930725,180.160583 
z"/>
<path fill="#E02329" opacity="1.000000" stroke="none" 
	d="
M345.997925,282.746918 
	C308.393158,282.746918 270.788391,282.746918 232.778229,282.746918 
	C232.778229,227.750229 232.778229,173.092651 232.778229,118.230377 
	C270.728241,118.230377 308.328308,118.230377 346.882751,118.230377 
	C346.882751,143.002426 346.882751,167.721649 346.736542,193.273529 
	C346.471436,195.918518 346.254761,197.730499 346.248260,199.543228 
	C346.148651,227.277725 346.076508,255.012344 345.997925,282.746918 
M246.252838,163.500000 
	C246.252838,192.907715 246.252838,222.315414 246.252838,252.058441 
	C256.333527,252.058441 265.872528,252.058441 275.670044,252.058441 
	C275.670044,214.499344 275.670044,177.180786 275.670044,139.740051 
	C265.793091,139.740051 256.246124,139.740051 246.252945,139.740051 
	C246.252945,147.588638 246.252945,155.044342 246.252838,163.500000 
M306.151184,172.654373 
	C312.129089,161.828445 318.106995,151.002518 324.535370,139.360748 
	C319.816620,139.360748 316.140961,138.997940 312.590027,139.506409 
	C310.676086,139.780502 308.201111,141.108734 307.298218,142.706619 
	C297.720398,159.656845 288.344238,176.722778 279.129883,193.873611 
	C278.296570,195.424713 278.273499,198.138031 279.061066,199.721130 
	C287.361145,216.405365 295.885010,232.978607 304.418671,249.545593 
	C304.972534,250.620773 306.100281,252.171173 306.985016,252.187286 
	C317.203552,252.373566 327.426697,252.306183 338.282257,252.306183 
	C337.218567,250.000656 336.590546,248.492752 335.844940,247.045410 
	C325.711517,227.374527 315.791016,207.588135 305.270416,188.126221 
	C302.277649,182.589920 301.735748,178.117279 306.151184,172.654373 
z"/>
<path fill="#049649" opacity="1.000000" stroke="none" 
	d="
M505.004791,107.279961 
	C528.361023,107.246544 551.717285,107.213120 575.565308,107.443970 
	C576.170532,107.898430 576.337891,107.997810 576.559204,108.006363 
	C576.652100,128.559418 576.745300,149.112488 576.837708,169.665543 
	C576.851929,172.815933 576.862366,175.966339 576.867065,179.557373 
	C576.859680,179.998016 576.649719,180.029068 576.288208,180.137878 
	C575.632996,181.987030 575.093262,183.726151 575.084656,185.467896 
	C575.014771,199.614334 575.049744,213.761292 575.035095,227.908066 
	C575.033752,229.218475 574.909851,230.528748 574.842834,231.839081 
	C573.954285,230.153595 573.954529,228.524368 573.954224,226.895142 
	C573.951172,207.921799 573.993774,188.948166 573.865784,169.975662 
	C573.854553,168.303970 572.728455,166.639801 572.079712,164.989929 
	C572.039246,165.007751 571.995178,164.930939 571.690063,164.650482 
	C564.599121,164.522888 557.813354,164.675735 550.642456,165.058945 
	C550.257385,173.673721 550.257385,182.058151 550.257385,190.401749 
	C543.711243,190.401749 538.470825,190.401749 532.789429,190.401749 
	C532.789429,166.453522 532.789429,142.874710 532.789429,119.184097 
	C525.080139,119.184097 517.829224,119.184097 510.407288,119.184097 
	C510.407288,159.465363 510.407288,199.486023 510.407288,239.615448 
	C518.011658,239.615448 525.251221,239.615448 533.052246,239.615448 
	C533.052246,227.282867 533.052246,215.224838 533.052246,203.175903 
	C538.869446,203.175903 544.114380,203.175903 550.141907,203.175903 
	C550.141907,215.591202 550.141907,227.702347 550.381104,240.146988 
	C557.414978,240.623749 564.209290,240.803162 571.004578,240.844101 
	C571.570374,240.847488 572.141846,239.916290 572.661255,239.181259 
	C572.618958,238.611938 572.702332,238.301071 573.124756,237.826981 
	C573.795166,237.067261 574.202637,236.491196 575.052551,235.289551 
	C575.052551,240.123093 574.781433,244.127838 575.127136,248.078598 
	C575.488586,252.208328 573.785522,253.093201 569.981628,253.066422 
	C548.519897,252.915298 527.056519,253.014511 505.593903,252.960464 
	C503.808624,252.955978 502.024628,252.447815 500.153198,251.701263 
	C500.043213,232.910599 499.979309,214.592255 500.010376,196.274109 
	C500.033264,182.790817 500.180359,169.307755 500.369141,155.762756 
	C500.586700,155.459946 500.516815,155.282059 500.171265,154.813934 
	C499.999969,153.985779 499.913879,153.510956 499.827789,153.036148 
	C499.827789,153.036148 499.859344,152.881180 500.235596,152.596252 
	C500.733582,139.736099 500.802643,127.159950 501.022797,114.586449 
	C501.065338,112.153648 501.698212,109.731186 502.058807,107.303955 
	C502.490143,107.257179 502.921448,107.210411 503.766541,107.370079 
	C504.455109,107.477669 504.729950,107.378807 505.004791,107.279961 
z"/>
<path fill="#FCEA07" opacity="1.000000" stroke="none" 
	d="
M346.104675,283.223602 
	C346.076508,255.012344 346.148651,227.277725 346.248260,199.543228 
	C346.254761,197.730499 346.471436,195.918518 346.756226,193.768982 
	C371.169769,193.420212 395.417450,193.404678 419.665131,193.414368 
	C420.474213,193.414703 421.283203,193.670563 422.533997,194.399506 
	C423.006683,208.262619 422.999084,221.533813 423.081543,234.804428 
	C423.140228,244.248093 423.320190,253.691025 423.446045,263.134277 
	C423.335815,276.912079 423.055176,290.691772 423.209869,304.466583 
	C423.262451,309.144592 422.027222,310.783020 417.066620,310.721161 
	C395.634064,310.453949 374.196228,310.611389 352.760315,310.615356 
	C346.573120,310.616486 346.365204,310.402679 346.333466,304.134888 
	C346.298981,297.323334 346.252594,290.511810 346.104675,283.223602 
M390.998230,275.567871 
	C391.337921,276.354279 391.677643,277.140656 392.422363,278.560944 
	C393.493286,280.217377 394.480347,283.235718 395.648834,283.307709 
	C402.851532,283.751221 410.095154,283.530273 417.857697,283.530273 
	C411.310760,261.892792 405.067535,241.077194 398.702515,220.298935 
	C395.490570,209.813736 391.904114,206.245850 384.981537,206.110001 
	C377.608887,205.965302 373.266510,209.815460 370.000519,220.267258 
	C365.443390,234.850922 361.205078,249.534149 356.825562,264.173370 
	C354.942383,270.468201 353.047180,276.759460 351.131287,283.139313 
	C362.445770,284.477936 362.443329,284.477203 365.351532,274.758972 
	C365.442291,274.455688 365.701263,274.202728 366.533630,273.565643 
	C368.310211,272.716888 370.054596,271.227722 371.869324,271.136414 
	C377.912292,270.832367 383.980469,271.030029 390.287354,271.310242 
	C390.287354,271.310242 390.274689,271.680389 390.125305,272.408905 
	C390.465027,273.259827 390.804718,274.110748 391.062073,274.946472 
	C391.062073,274.946472 391.106171,274.875275 390.998230,275.567871 
z"/>
<path fill="#EC8120" opacity="1.000000" stroke="none" 
	d="
M652.474731,180.061890 
	C652.938965,216.773132 652.947205,253.385681 652.964905,290.460175 
	C629.392090,291.020660 605.809814,291.119507 582.227539,291.216949 
	C580.742371,291.223083 579.257263,291.217773 576.793335,291.217773 
	C576.793335,278.904633 576.793335,266.869110 576.804199,253.920044 
	C576.856323,243.238190 576.955139,233.469711 576.925415,223.701614 
	C576.881104,209.143951 576.746155,194.586563 576.649719,180.029068 
	C576.649719,180.029068 576.859680,179.998016 576.963745,180.020233 
	C602.051392,180.016022 627.035034,179.989609 652.474731,180.061890 
M604.654297,254.072311 
	C609.956604,254.072311 615.258972,254.072311 620.739868,254.072311 
	C621.874939,257.875549 622.727600,261.437378 624.055603,264.812164 
	C624.541626,266.047272 626.123596,267.654877 627.259644,267.698853 
	C634.175537,267.966583 641.106995,267.832489 648.540833,267.832489 
	C647.812622,264.953369 647.334595,262.700348 646.671875,260.503052 
	C642.738831,247.462708 638.856506,234.405807 634.767578,221.414154 
	C632.178528,213.188126 629.842529,204.804779 626.330933,196.967911 
	C622.578918,188.594635 610.565125,187.865723 605.317749,195.458603 
	C602.916504,198.933136 601.341553,203.124847 600.061401,207.201569 
	C595.631836,221.308243 591.478149,235.501877 587.257690,249.673798 
	C585.521973,255.502228 583.883667,261.359680 582.183105,267.266174 
	C593.410645,269.044952 593.726807,269.119690 596.058105,259.258545 
	C597.170288,254.553986 599.534058,253.409210 604.654297,254.072311 
z"/>
<path fill="#09A0DD" opacity="1.000000" stroke="none" 
	d="
M423.881592,263.128235 
	C423.320190,253.691025 423.140228,244.248093 423.081543,234.804428 
	C422.999084,221.533813 423.006683,208.262619 422.915863,194.531464 
	C422.855957,180.636551 422.855957,167.201843 422.855957,153.078583 
	C448.740967,153.078583 473.831360,153.078583 499.374756,153.057373 
	C499.913879,153.510956 499.999969,153.985779 500.118469,154.978622 
	C500.150848,155.496658 500.272095,155.824585 500.272095,155.824585 
	C500.180359,169.307755 500.033264,182.790817 500.010376,196.274109 
	C499.979309,214.592255 500.043213,232.910599 500.077240,252.007416 
	C500.161255,253.199142 500.234436,253.612305 500.307587,254.025452 
	C500.139496,256.814270 499.971405,259.603088 499.759277,263.122162 
	C474.551239,263.122162 449.434174,263.122162 423.881592,263.128235 
M443.833771,229.497589 
	C443.833771,219.555786 443.833771,209.613983 443.833771,199.672195 
	C447.521027,203.910019 449.930542,208.272888 452.468719,212.559616 
	C458.822479,223.290680 465.099091,234.071747 471.700500,244.649368 
	C473.857086,248.104919 477.442322,249.772141 481.689087,248.465622 
	C485.964996,247.150146 486.608002,243.458755 486.988190,239.713882 
	C487.105499,238.558029 487.067230,237.384430 487.067413,236.218948 
	C487.070526,216.067902 487.074860,195.916870 487.053986,175.765839 
	C487.052490,174.329758 486.857849,172.893875 486.755402,171.491028 
	C482.974274,171.491028 479.592896,171.491028 475.646484,171.491028 
	C475.646484,183.500870 475.646484,195.110413 475.646484,206.719955 
	C469.821747,198.217178 464.975739,189.495544 459.770264,180.994034 
	C457.714203,177.636124 455.139679,174.473770 452.295441,171.750656 
	C448.587067,168.200241 443.765320,168.048233 439.158386,169.573334 
	C434.663940,171.061188 433.078644,174.933533 432.749481,179.390488 
	C432.602509,181.379883 432.349243,183.369995 432.346161,185.360107 
	C432.317291,203.845718 432.326416,222.331375 432.345123,240.817017 
	C432.346771,242.429718 432.495300,244.042252 432.577301,245.689240 
	C436.502991,245.689240 439.918030,245.689240 443.196136,245.689240 
	C443.464447,245.068619 443.700195,244.774307 443.704071,244.476990 
	C443.764954,239.816788 443.795868,235.156174 443.833771,229.497589 
z"/>
<path fill="#343332" opacity="1.000000" stroke="none" 
	d="
M182.516571,282.320374 
	C185.519211,289.249817 188.358109,295.816833 191.525070,303.142700 
	C186.278427,299.964966 180.733688,288.047821 175.188828,269.224854 
	C168.725815,276.219513 162.414291,283.050201 156.102768,289.880920 
	C155.508408,289.389984 154.914062,288.899048 154.319717,288.408112 
	C155.289383,286.894226 156.143433,285.289520 157.248795,283.882233 
	C161.974808,277.865204 166.897141,271.997406 171.464096,265.863892 
	C172.638733,264.286316 173.541870,261.831024 173.277863,259.961395 
	C170.374329,239.398895 173.185181,219.072113 175.432465,198.713272 
	C175.651062,196.732941 175.777664,194.742447 176.041748,191.644867 
	C169.658844,197.938782 163.645416,203.333862 154.758835,204.240997 
	C155.350708,203.463974 155.796341,202.474564 156.560791,201.948135 
	C159.296463,200.064148 162.252274,198.489136 164.921661,196.521637 
	C172.357391,191.041077 177.794861,184.580719 176.244141,174.339905 
	C175.076553,166.629288 174.647919,158.806458 173.468384,151.098129 
	C173.060333,148.431458 171.381882,145.959183 170.272278,143.371460 
	C166.180511,145.429611 162.708298,147.718018 158.896240,148.978943 
	C151.332886,151.480728 144.852127,149.332977 139.671204,143.218414 
	C134.297455,136.876282 128.840134,130.604965 123.454842,124.272507 
	C123.195930,123.968048 123.279198,123.372597 123.015602,121.779167 
	C125.263374,122.823578 127.186783,123.224068 128.410370,124.371078 
	C133.739929,129.367142 138.962677,134.486801 144.040588,139.739105 
	C149.977066,145.879440 156.186295,145.374191 161.152252,138.176804 
	C161.550583,137.599472 162.272232,137.124695 162.944885,136.875183 
	C173.557465,132.938919 182.410355,120.956017 182.745041,109.856018 
	C182.874054,105.577110 181.097672,102.323959 177.622086,99.611725 
	C176.159241,98.470169 175.787384,95.930565 174.919586,94.026497 
	C177.126236,94.210617 179.824432,93.642982 181.454514,94.708870 
	C188.548401,99.347519 191.667648,109.552834 188.224625,117.799049 
	C186.270828,122.478500 183.142044,126.702484 180.279984,130.954956 
	C178.436615,133.693878 176.116852,136.112198 173.877487,138.836136 
	C178.738861,144.458801 180.424973,151.092316 181.267136,158.139862 
	C181.473999,159.871078 183.475067,161.316360 184.112518,163.087051 
	C184.799652,164.995728 185.121902,167.133896 185.108093,169.168594 
	C185.094818,171.125061 184.448135,173.077225 184.043457,175.224014 
	C189.672607,174.096176 191.880569,177.666870 193.178726,182.089493 
	C198.426804,199.969025 198.968597,217.962402 192.582153,235.580048 
	C189.433334,244.266357 184.977768,252.530045 180.536316,260.670044 
	C178.896683,263.675049 177.954346,266.151642 178.973022,269.446014 
	C180.248413,273.570618 181.239197,277.783264 182.516571,282.320374 
M180.114563,250.564957 
	C191.915146,226.716125 192.668579,202.362045 182.739502,177.502243 
	C180.977219,203.345383 173.787842,228.787827 177.247070,256.219910 
	C178.510132,253.843201 179.194855,252.554733 180.114563,250.564957 
z"/>
<path fill="#2E2D2C" opacity="1.000000" stroke="none" 
	d="
M287.720520,315.812805 
	C284.937561,318.445740 284.585388,315.852112 283.731384,314.454102 
	C278.892426,306.532745 272.926147,303.284546 265.812042,304.484039 
	C260.387024,305.398773 256.561462,308.509552 254.529266,313.344025 
	C249.606506,325.055145 249.055267,337.019897 254.645355,348.635590 
	C259.163361,358.023621 268.820953,361.369415 277.134583,356.703949 
	C278.757660,355.793121 280.257782,353.304016 280.424774,351.419708 
	C280.876312,346.325165 280.579407,341.164276 280.579407,335.373444 
	C283.744049,335.373444 286.512634,335.373444 289.281219,335.373444 
	C292.077362,335.373444 294.873474,335.373444 298.096283,335.373444 
	C298.096283,341.832977 298.220367,347.797760 297.993103,353.749115 
	C297.946838,354.960754 296.821289,356.424194 295.781860,357.259888 
	C284.504608,366.326874 271.731384,369.889160 257.461395,366.899475 
	C242.319183,363.726990 232.119247,350.080292 231.542679,332.652252 
	C230.730484,308.103149 252.501572,290.509277 275.751404,296.906830 
	C283.578308,299.060547 289.066010,304.049835 293.443909,311.251648 
	C291.560181,312.755615 289.786957,314.171356 287.720520,315.812805 
z"/>
<path fill="#2E2D2C" opacity="1.000000" stroke="none" 
	d="
M463.936890,350.048035 
	C463.936859,355.510956 463.936859,360.481842 463.936859,365.794281 
	C459.269165,365.794281 454.888580,365.794281 450.227173,365.794281 
	C450.227173,341.449707 450.227173,317.085938 450.227173,292.476227 
	C454.684631,292.476227 458.942444,292.476227 463.769653,292.476227 
	C463.769653,306.915558 463.769653,321.279236 463.769653,335.869293 
	C467.406036,335.869293 470.480896,335.869293 473.990448,335.869293 
	C473.990448,330.850159 473.990448,325.928284 473.990448,320.689209 
	C478.815277,320.689209 483.211182,320.689209 487.837158,320.689209 
	C487.837158,335.776794 487.837158,350.682861 487.837158,365.865295 
	C483.334412,365.865295 478.951019,365.865295 474.056763,365.865295 
	C474.056763,358.454407 474.056763,351.218658 474.056763,343.822388 
	C470.589691,343.822388 467.629517,343.822388 463.936951,343.822388 
	C463.936951,345.725311 463.936951,347.640656 463.936890,350.048035 
z"/>
<path fill="#302F2D" opacity="1.000000" stroke="none" 
	d="
M343.081482,330.906616 
	C343.992096,337.647308 342.601929,342.913544 335.585175,345.736023 
	C339.600189,352.402130 343.492828,358.865173 347.876617,366.143585 
	C342.557892,366.143585 338.133789,366.302185 333.735840,366.033112 
	C332.623260,365.965057 331.120056,364.760681 330.604736,363.689514 
	C327.582336,357.407410 324.799652,351.009979 321.943390,344.667480 
	C328.997894,340.446259 330.818298,337.224457 329.225311,331.930481 
	C327.920776,327.595245 324.864532,326.448578 320.320435,327.200562 
	C320.320435,340.012299 320.320435,352.776093 320.320435,365.840088 
	C315.844971,365.840088 311.768646,365.840088 307.376709,365.840088 
	C307.376709,350.930450 307.376709,336.008759 307.376709,320.019226 
	C316.075012,320.449799 324.853973,320.475128 333.520813,321.473877 
	C338.362610,322.031891 341.907715,325.350067 343.081482,330.906616 
z"/>
<path fill="#2F2E2D" opacity="1.000000" stroke="none" 
	d="
M364.298279,321.175720 
	C370.943481,317.260437 375.485779,318.622375 377.738800,325.547028 
	C382.045990,338.785187 385.939575,352.157898 390.118256,365.846252 
	C385.186127,365.846252 380.613373,365.846252 376.001648,365.846252 
	C371.958252,357.456024 371.958252,357.456024 361.981628,357.923676 
	C359.360291,358.046539 359.360291,358.046539 356.395416,365.941284 
	C354.343475,365.941284 352.230927,365.941284 349.446533,365.941284 
	C352.916138,354.367981 356.188995,343.123840 359.692841,331.952148 
	C360.822662,328.349792 362.559998,324.937958 364.298279,321.175720 
M366.047119,333.366577 
	C364.281219,339.196381 362.515320,345.026215 360.628082,351.256653 
	C364.458221,351.256653 367.640137,351.256653 371.366119,351.256653 
	C369.713593,344.916321 368.173431,339.007080 366.047119,333.366577 
z"/>
<path fill="#31302E" opacity="1.000000" stroke="none" 
	d="
M540.118286,351.326233 
	C541.163208,355.913788 542.272339,360.248566 547.478516,360.593353 
	C553.251953,360.975769 555.857910,356.711029 558.249756,351.615387 
	C559.972534,352.649536 561.564697,353.605225 563.453918,354.739258 
	C560.361755,362.124359 555.522217,366.968719 547.653870,367.779053 
	C539.082214,368.661774 532.135193,365.320770 527.993530,357.742584 
	C522.754150,348.155914 522.780518,338.174988 528.403198,328.741150 
	C532.798889,321.365967 539.797363,318.263519 548.349426,319.059723 
	C555.447937,319.720612 560.412659,323.337433 563.017944,330.632568 
	C561.296021,331.723846 559.520874,332.848755 557.446960,334.163086 
	C556.906372,333.091614 556.651611,331.853729 555.892456,331.219360 
	C553.633179,329.331390 551.388184,326.773895 548.744812,326.154755 
	C545.003479,325.278473 542.104553,328.300049 541.568909,331.662415 
	C540.560669,337.991974 540.509888,344.474060 540.118286,351.326233 
z"/>
<path fill="#2E2D2C" opacity="1.000000" stroke="none" 
	d="
M507.061493,320.369873 
	C509.825287,320.370392 512.126343,320.370392 514.681030,320.370392 
	C514.681030,335.736115 514.681030,350.638275 514.681030,365.839600 
	C510.225494,365.839600 505.837494,365.839600 501.200684,365.839600 
	C501.200684,350.826965 501.200684,335.900726 501.200684,320.369354 
	C503.038757,320.369354 504.818756,320.369354 507.061493,320.369873 
z"/>
<path fill="#363635" opacity="1.000000" stroke="none" 
	d="
M142.377945,310.723511 
	C151.703125,315.274384 160.721695,319.629517 170.792786,324.492889 
	C168.750320,324.796631 167.348145,325.388947 166.126846,325.129608 
	C145.506241,320.750671 128.610107,310.076965 115.256920,293.963989 
	C112.871284,291.085327 112.288895,286.712250 111.908180,282.907349 
	C121.962570,292.114136 132.016953,301.320923 142.377945,310.723511 
z"/>
<path fill="#343332" opacity="1.000000" stroke="none" 
	d="
M116.243301,246.510925 
	C114.821350,257.861084 113.501884,268.805573 112.037399,280.953033 
	C111.024719,279.262207 110.142822,278.462830 110.103119,277.623566 
	C109.384758,262.437469 109.136101,247.151428 115.106293,232.874710 
	C117.791344,226.453873 122.524673,220.865662 126.534500,215.041397 
	C127.415154,213.762238 129.067688,212.570358 130.551620,212.274033 
	C132.073685,211.970078 133.824814,212.813171 135.475693,213.154236 
	C134.927109,214.562134 134.794449,216.549881 133.765427,217.287994 
	C123.804451,224.432800 119.361893,234.818085 116.243301,246.510925 
z"/>
<path fill="#37975A" opacity="1.000000" stroke="none" 
	d="
M500.747131,254.037964 
	C500.234436,253.612305 500.161255,253.199142 500.164062,252.479843 
	C502.024628,252.447815 503.808624,252.955978 505.593903,252.960464 
	C527.056519,253.014511 548.519897,252.915298 569.981628,253.066422 
	C573.785522,253.093201 575.488586,252.208328 575.127136,248.078598 
	C574.781433,244.127838 575.052551,240.123093 575.052551,235.289551 
	C574.202637,236.491196 573.795166,237.067261 572.976257,237.451019 
	C572.542908,223.126785 572.562073,208.994614 572.485229,194.862976 
	C572.431030,184.898987 572.246582,174.935715 572.120239,164.972122 
	C572.728455,166.639801 573.854553,168.303970 573.865784,169.975662 
	C573.993774,188.948166 573.951172,207.921799 573.954224,226.895142 
	C573.954529,228.524368 573.954285,230.153595 574.842834,231.839081 
	C574.909851,230.528748 575.033752,229.218475 575.035095,227.908066 
	C575.049744,213.761292 575.014771,199.614334 575.084656,185.467896 
	C575.093262,183.726151 575.632996,181.987030 576.288208,180.137878 
	C576.746155,194.586563 576.881104,209.143951 576.925415,223.701614 
	C576.955139,233.469711 576.856323,243.238190 576.707397,253.455109 
	C551.461975,253.952637 526.324341,254.001556 500.747131,254.037964 
z"/>
<path fill="#383838" opacity="1.000000" stroke="none" 
	d="
M140.720856,187.540909 
	C135.889832,181.204926 131.621231,174.830750 126.425652,169.332535 
	C118.883438,161.350983 111.930138,153.219452 110.336601,141.895584 
	C109.753006,137.748535 108.921997,133.356430 113.612793,129.522430 
	C114.057976,131.532333 114.694832,132.903366 114.602570,134.223450 
	C113.665939,147.625397 120.690948,157.119217 129.429367,166.120422 
	C134.229950,171.065384 138.397415,176.732376 142.181778,182.511612 
	C144.103409,185.446167 144.659515,189.319901 145.590424,192.833298 
	C145.906754,194.027206 145.480225,195.417908 145.393143,196.718689 
	C144.878754,196.787262 144.364365,196.855835 143.849976,196.924408 
	C142.856308,193.914337 141.862640,190.904282 140.720856,187.540909 
z"/>
<path fill="#F2F2F2" opacity="1.000000" stroke="none" 
	d="
M65.679108,132.636795 
	C65.734413,129.977692 65.792412,127.318649 65.844482,124.659485 
	C65.974251,118.032906 69.013405,114.458847 75.634331,114.877693 
	C81.533684,115.250885 87.348701,116.957359 93.914749,118.079781 
	C94.470566,117.591187 94.312569,117.098251 94.154572,116.605309 
	C94.154572,116.605309 94.207489,116.271042 94.236427,116.104317 
	C95.729546,116.248062 97.193726,116.558533 99.008194,117.018112 
	C88.628822,122.616745 77.899178,128.066284 66.635590,133.347549 
	C65.960800,132.998444 65.819954,132.817627 65.679108,132.636795 
z"/>
<path fill="#383837" opacity="1.000000" stroke="none" 
	d="
M85.751938,153.805573 
	C83.026352,158.400681 80.790413,162.902969 77.853653,166.888901 
	C75.968132,169.448029 73.343437,171.967529 70.490196,173.126831 
	C68.662178,173.869583 65.275208,172.750793 63.547661,171.312668 
	C60.807789,169.031738 60.411118,155.501114 62.985455,150.762726 
	C63.841293,153.297012 64.657074,154.920349 64.908600,156.626862 
	C65.392265,159.908539 65.554985,163.237442 65.853371,166.546524 
	C66.168991,170.046661 68.299202,170.362701 70.667320,168.799973 
	C72.393539,167.660843 73.930145,165.945175 75.003815,164.157715 
	C79.102432,157.334213 82.897697,150.328568 86.994064,143.503677 
	C88.072144,141.707504 89.825432,140.316605 91.268661,138.739609 
	C91.838501,139.115112 92.408348,139.490631 92.978195,139.866150 
	C90.633659,144.408737 88.289124,148.951309 85.751938,153.805573 
z"/>
<path fill="#393938" opacity="1.000000" stroke="none" 
	d="
M169.006378,52.476086 
	C169.343170,52.073086 169.924911,52.055336 170.942627,52.084946 
	C171.614182,52.724403 171.778534,53.358898 172.100342,53.899712 
	C172.757523,55.004185 174.315903,56.435238 174.031082,57.052113 
	C173.491028,58.221752 171.907974,59.682076 170.769455,59.672581 
	C165.137909,59.625614 159.488632,59.343163 153.885635,58.759441 
	C144.148819,57.745045 134.694931,58.340069 125.645058,62.445915 
	C124.781387,62.837757 123.693390,62.735161 122.709534,62.862103 
	C122.506531,62.475719 122.303528,62.089336 122.100525,61.702950 
	C123.505402,60.565578 124.746933,58.836632 126.344101,58.395634 
	C132.493881,56.697601 138.693390,54.777592 144.995651,54.140926 
	C152.043457,53.428936 159.223358,54.065014 166.344482,53.990761 
	C167.317245,53.980618 168.282562,53.255451 169.006378,52.476086 
z"/>
<path fill="#3A3939" opacity="1.000000" stroke="none" 
	d="
M129.420044,343.399719 
	C131.244476,335.561493 132.931442,328.124451 134.650833,320.694916 
	C134.756958,320.236359 135.118835,319.836975 136.648453,319.174988 
	C136.973785,321.283813 137.915421,323.520203 137.510300,325.477875 
	C136.234772,331.641266 134.420563,337.691681 132.876587,343.801392 
	C130.997879,351.235718 131.940353,358.282745 135.872772,364.915070 
	C136.545944,366.050415 137.311523,367.283752 137.460236,368.539795 
	C137.660263,370.229279 137.898499,372.476593 137.002670,373.562103 
	C136.234909,374.492493 133.894882,374.125336 133.563156,373.215454 
	C132.725098,369.249512 132.362411,365.102783 130.938965,361.359436 
	C128.736191,355.566681 127.964790,349.832886 129.420044,343.399719 
z"/>
<path fill="#373737" opacity="1.000000" stroke="none" 
	d="
M180.024323,329.328735 
	C179.122177,332.866150 178.875351,336.474243 177.099258,339.012115 
	C172.924515,344.977448 171.011963,351.319214 170.859375,358.532684 
	C170.710571,365.566864 165.021774,370.995819 158.108475,371.311127 
	C157.355774,371.345459 156.576675,370.801453 154.545670,370.071167 
	C157.059082,369.131012 158.333755,368.656525 159.606796,368.177673 
	C165.022629,366.140381 167.717148,362.696808 167.702713,357.015503 
	C167.684021,349.661011 169.856552,343.139557 173.419571,336.726807 
	C175.227066,333.473663 175.334167,329.275696 176.417831,324.609985 
	C177.485611,325.898163 178.735153,327.405640 180.024323,329.328735 
z"/>
<path fill="#31302F" opacity="1.000000" stroke="none" 
	d="
M515.177490,301.122711 
	C514.373901,307.177490 511.555542,309.861450 507.029846,309.312164 
	C502.812012,308.800232 500.122314,304.802673 500.864227,300.148529 
	C501.515869,296.060791 504.991333,293.353302 509.009399,293.964569 
	C512.816589,294.543793 514.685547,297.025269 515.177490,301.122711 
z"/>
<path fill="#37975A" opacity="1.000000" stroke="none" 
	d="
M501.633942,107.227814 
	C501.698212,109.731186 501.065338,112.153648 501.022797,114.586449 
	C500.802643,127.159950 500.733582,139.736099 500.312622,152.578369 
	C499.970093,138.707047 499.897247,124.568581 499.941071,110.430481 
	C499.944458,109.336243 500.767181,108.244553 501.633942,107.227814 
z"/>
<path fill="#37975A" opacity="1.000000" stroke="none" 
	d="
M504.752228,107.191971 
	C504.729950,107.378807 504.455109,107.477669 504.088196,107.430389 
	C504.163940,107.224167 504.331787,107.164078 504.752228,107.191971 
z"/>
<path fill="#37975A" opacity="1.000000" stroke="none" 
	d="
M576.617065,107.808945 
	C576.337891,107.997810 576.170532,107.898430 576.018921,107.561844 
	C576.284058,107.226646 576.515442,107.292007 576.617065,107.808945 
z"/>
<path fill="#F6F6F6" opacity="1.000000" stroke="none" 
	d="
M170.328644,81.542732 
	C170.203583,82.150650 169.813248,82.404503 169.422913,82.658371 
	C169.326767,82.108208 169.230621,81.558052 169.301758,80.770523 
	C169.667145,80.751656 169.865250,80.970161 170.328644,81.542732 
z"/>
<path fill="#F2F2F2" opacity="1.000000" stroke="none" 
	d="
M66.294334,133.464020 
	C66.086761,133.437149 65.686501,133.125504 65.482681,132.725327 
	C65.819954,132.817627 65.960800,132.998444 66.294334,133.464020 
z"/>
<path fill="#353534" opacity="1.000000" stroke="none" 
	d="
M94.101303,116.952499 
	C94.312569,117.098251 94.470566,117.591187 94.314285,118.042343 
	C94.016014,117.766937 94.032021,117.533310 94.101303,116.952499 
z"/>
<path fill="#F4F4F4" opacity="1.000000" stroke="none" 
	d="
M415.321228,359.545502 
	C412.870422,360.220337 411.913239,359.704956 411.936981,357.307953 
	C412.035919,347.328491 411.978638,337.347443 411.978638,327.394562 
	C418.755890,326.822968 422.821472,329.070404 424.003296,335.153931 
	C424.936829,339.959137 424.977264,345.072357 424.542816,349.971497 
	C424.095398,355.016846 421.064423,358.518982 415.321228,359.545502 
z"/>
<path fill="#EFEFEF" opacity="1.000000" stroke="none" 
	d="
M166.604248,36.547112 
	C168.313644,33.041595 170.371613,29.900438 170.978165,26.500355 
	C171.314651,24.614170 169.709732,21.129927 168.109085,20.466303 
	C166.102219,19.634272 162.442261,20.113085 160.860382,21.539482 
	C158.278931,23.867214 156.375717,27.236109 154.970139,30.502951 
	C153.350586,34.267056 152.581970,38.397274 150.525528,42.509731 
	C150.525528,39.482815 149.703278,36.161324 150.664352,33.478714 
	C155.454453,20.108175 165.279205,11.481602 178.379013,6.780039 
	C184.399353,4.619318 188.189270,8.455777 186.865814,14.801567 
	C186.302734,17.501570 185.327957,20.460447 183.599655,22.507534 
	C178.579407,28.453747 173.250458,34.170044 167.672668,39.596252 
	C165.983414,41.239586 163.088867,41.643951 160.270187,41.647026 
	C162.295654,40.032459 164.321106,38.417889 166.604248,36.547112 
z"/>
<path fill="#FEF9F9" opacity="1.000000" stroke="none" 
	d="
M246.252899,163.000015 
	C246.252945,155.044342 246.252945,147.588638 246.252945,139.740051 
	C256.246124,139.740051 265.793091,139.740051 275.670044,139.740051 
	C275.670044,177.180786 275.670044,214.499344 275.670044,252.058441 
	C265.872528,252.058441 256.333527,252.058441 246.252838,252.058441 
	C246.252838,222.315414 246.252838,192.907715 246.252899,163.000015 
z"/>
<path fill="#FEF9F9" opacity="1.000000" stroke="none" 
	d="
M305.982483,172.983124 
	C301.735748,178.117279 302.277649,182.589920 305.270416,188.126221 
	C315.791016,207.588135 325.711517,227.374527 335.844940,247.045410 
	C336.590546,248.492752 337.218567,250.000656 338.282257,252.306183 
	C327.426697,252.306183 317.203552,252.373566 306.985016,252.187286 
	C306.100281,252.171173 304.972534,250.620773 304.418671,249.545593 
	C295.885010,232.978607 287.361145,216.405365 279.061066,199.721130 
	C278.273499,198.138031 278.296570,195.424713 279.129883,193.873611 
	C288.344238,176.722778 297.720398,159.656845 307.298218,142.706619 
	C308.201111,141.108734 310.676086,139.780502 312.590027,139.506409 
	C316.140961,138.997940 319.816620,139.360748 324.535370,139.360748 
	C318.106995,151.002518 312.129089,161.828445 305.982483,172.983124 
z"/>
<path fill="#F7FDFB" opacity="1.000000" stroke="none" 
	d="
M572.079712,164.989929 
	C572.246582,174.935715 572.431030,184.898987 572.485229,194.862976 
	C572.562073,208.994614 572.542908,223.126785 572.713257,237.634674 
	C572.702332,238.301071 572.618958,238.611938 572.224365,239.288818 
	C564.605225,239.694122 557.373535,239.753815 550.141907,239.813507 
	C550.141907,227.702347 550.141907,215.591202 550.141907,203.175903 
	C544.114380,203.175903 538.869446,203.175903 533.052246,203.175903 
	C533.052246,215.224838 533.052246,227.282867 533.052246,239.615448 
	C525.251221,239.615448 518.011658,239.615448 510.407288,239.615448 
	C510.407288,199.486023 510.407288,159.465363 510.407288,119.184097 
	C517.829224,119.184097 525.080139,119.184097 532.789429,119.184097 
	C532.789429,142.874710 532.789429,166.453522 532.789429,190.401749 
	C538.470825,190.401749 543.711243,190.401749 550.257385,190.401749 
	C550.257385,182.058151 550.257385,173.673721 551.099426,165.153595 
	C558.626038,164.988907 565.310608,164.959915 571.995178,164.930939 
	C571.995178,164.930939 572.039246,165.007751 572.079712,164.989929 
z"/>
<path fill="#37975A" opacity="1.000000" stroke="none" 
	d="
M550.381104,240.146988 
	C557.373535,239.753815 564.605225,239.694122 572.273804,239.526871 
	C572.141846,239.916290 571.570374,240.847488 571.004578,240.844101 
	C564.209290,240.803162 557.414978,240.623749 550.381104,240.146988 
z"/>
<path fill="#37975A" opacity="1.000000" stroke="none" 
	d="
M571.690063,164.650482 
	C565.310608,164.959915 558.626038,164.988907 551.484497,164.923248 
	C557.813354,164.675735 564.599121,164.522888 571.690063,164.650482 
z"/>
<path fill="#37975A" opacity="1.000000" stroke="none" 
	d="
M500.369141,155.762756 
	C500.272095,155.824585 500.150848,155.496658 500.203674,155.331970 
	C500.516815,155.282059 500.586700,155.459946 500.369141,155.762756 
z"/>
<path fill="#232012" opacity="1.000000" stroke="none" 
	d="
M365.881836,273.926331 
	C365.701263,274.202728 365.442291,274.455688 365.351532,274.758972 
	C362.443329,284.477203 362.445770,284.477936 351.131287,283.139313 
	C353.047180,276.759460 354.942383,270.468201 356.825562,264.173370 
	C361.205078,249.534149 365.443390,234.850922 370.000519,220.267258 
	C373.266510,209.815460 377.608887,205.965302 384.981537,206.110001 
	C391.904114,206.245850 395.490570,209.813736 398.702515,220.298935 
	C405.067535,241.077194 411.310760,261.892792 417.857697,283.530273 
	C410.095154,283.530273 402.851532,283.751221 395.648834,283.307709 
	C394.480347,283.235718 393.493286,280.217377 392.250793,277.913177 
	C391.754913,276.468689 391.430542,275.671997 391.106171,274.875275 
	C391.106171,274.875275 391.062073,274.946472 391.113953,274.600586 
	C390.868805,273.396606 390.571747,272.538513 390.274689,271.680389 
	C390.274689,271.680389 390.287354,271.310242 389.992981,270.759644 
	C382.922363,270.098358 376.143005,270.075989 369.371216,269.837677 
	C366.238068,269.727386 365.836914,271.536377 365.881836,273.926331 
M386.139893,255.972260 
	C383.973328,247.565506 381.806793,239.158737 379.640228,230.751984 
	C378.988770,230.784515 378.337311,230.817062 377.685852,230.849609 
	C375.045288,240.150467 372.404694,249.451309 369.585236,259.382263 
	C375.168945,259.382263 380.112274,259.452118 385.045990,259.265961 
	C385.501312,259.248749 385.895081,257.600861 386.139893,255.972260 
z"/>
<path fill="#E7DC3F" opacity="1.000000" stroke="none" 
	d="
M366.207733,273.745972 
	C365.836914,271.536377 366.238068,269.727386 369.371216,269.837677 
	C376.143005,270.075989 382.922363,270.098358 389.868835,270.622192 
	C383.980469,271.030029 377.912292,270.832367 371.869324,271.136414 
	C370.054596,271.227722 368.310211,272.716888 366.207733,273.745972 
z"/>
<path fill="#E7DC3F" opacity="1.000000" stroke="none" 
	d="
M390.200012,272.044647 
	C390.571747,272.538513 390.868805,273.396606 391.155151,274.608215 
	C390.804718,274.110748 390.465027,273.259827 390.200012,272.044647 
z"/>
<path fill="#E7DC3F" opacity="1.000000" stroke="none" 
	d="
M391.052185,275.221558 
	C391.430542,275.671997 391.754913,276.468689 392.048309,277.596222 
	C391.677643,277.140656 391.337921,276.354279 391.052185,275.221558 
z"/>
<path fill="#FEFBF5" opacity="1.000000" stroke="none" 
	d="
M604.180664,254.071640 
	C599.534058,253.409210 597.170288,254.553986 596.058105,259.258545 
	C593.726807,269.119690 593.410645,269.044952 582.183105,267.266174 
	C583.883667,261.359680 585.521973,255.502228 587.257690,249.673798 
	C591.478149,235.501877 595.631836,221.308243 600.061401,207.201569 
	C601.341553,203.124847 602.916504,198.933136 605.317749,195.458603 
	C610.565125,187.865723 622.578918,188.594635 626.330933,196.967911 
	C629.842529,204.804779 632.178528,213.188126 634.767578,221.414154 
	C638.856506,234.405807 642.738831,247.462708 646.671875,260.503052 
	C647.334595,262.700348 647.812622,264.953369 648.540833,267.832489 
	C641.106995,267.832489 634.175537,267.966583 627.259644,267.698853 
	C626.123596,267.654877 624.541626,266.047272 624.055603,264.812164 
	C622.727600,261.437378 621.874939,257.875549 620.739868,254.072311 
	C615.258972,254.072311 609.956604,254.072311 604.180664,254.071640 
M606.546753,222.027069 
	C604.613586,229.010147 602.680420,235.993210 600.609070,243.475586 
	C606.674622,243.475586 612.007935,243.475586 617.934753,243.475586 
	C615.228394,232.930923 612.648071,222.877228 609.703491,211.404282 
	C608.442078,215.647339 607.608765,218.450455 606.546753,222.027069 
z"/>
<path fill="#F4FCFE" opacity="1.000000" stroke="none" 
	d="
M443.833740,229.996628 
	C443.795868,235.156174 443.764954,239.816788 443.704071,244.476990 
	C443.700195,244.774307 443.464447,245.068619 443.196136,245.689240 
	C439.918030,245.689240 436.502991,245.689240 432.577301,245.689240 
	C432.495300,244.042252 432.346771,242.429718 432.345123,240.817017 
	C432.326416,222.331375 432.317291,203.845718 432.346161,185.360107 
	C432.349243,183.369995 432.602509,181.379883 432.749481,179.390488 
	C433.078644,174.933533 434.663940,171.061188 439.158386,169.573334 
	C443.765320,168.048233 448.587067,168.200241 452.295441,171.750656 
	C455.139679,174.473770 457.714203,177.636124 459.770264,180.994034 
	C464.975739,189.495544 469.821747,198.217178 475.646484,206.719955 
	C475.646484,195.110413 475.646484,183.500870 475.646484,171.491028 
	C479.592896,171.491028 482.974274,171.491028 486.755402,171.491028 
	C486.857849,172.893875 487.052490,174.329758 487.053986,175.765839 
	C487.074860,195.916870 487.070526,216.067902 487.067413,236.218948 
	C487.067230,237.384430 487.105499,238.558029 486.988190,239.713882 
	C486.608002,243.458755 485.964996,247.150146 481.689087,248.465622 
	C477.442322,249.772141 473.857086,248.104919 471.700500,244.649368 
	C465.099091,234.071747 458.822479,223.290680 452.468719,212.559616 
	C449.930542,208.272888 447.521027,203.910019 443.833771,199.672195 
	C443.833771,209.613983 443.833771,219.555786 443.833740,229.996628 
z"/>
<path fill="#F0F0F0" opacity="1.000000" stroke="none" 
	d="
M179.997070,250.915619 
	C179.194855,252.554733 178.510132,253.843201 177.247070,256.219910 
	C173.787842,228.787827 180.977219,203.345383 182.739502,177.502243 
	C192.668579,202.362045 191.915146,226.716125 179.997070,250.915619 
z"/>
<path fill="#E4E4E4" opacity="1.000000" stroke="none" 
	d="
M366.340179,333.232239 
	C368.173431,339.007080 369.713593,344.916321 371.366119,351.256653 
	C367.640137,351.256653 364.458221,351.256653 360.628082,351.256653 
	C362.515320,345.026215 364.281219,339.196381 366.340179,333.232239 
z"/>
<path fill="#F5E611" opacity="1.000000" stroke="none" 
	d="
M386.228668,256.341217 
	C385.895081,257.600861 385.501312,259.248749 385.045990,259.265961 
	C380.112274,259.452118 375.168945,259.382263 369.585236,259.382263 
	C372.404694,249.451309 375.045288,240.150467 377.685852,230.849609 
	C378.337311,230.817062 378.988770,230.784515 379.640228,230.751984 
	C381.806793,239.158737 383.973328,247.565506 386.228668,256.341217 
z"/>
<path fill="#E8862F" opacity="1.000000" stroke="none" 
	d="
M606.661133,221.640320 
	C607.608765,218.450455 608.442078,215.647339 609.703491,211.404282 
	C612.648071,222.877228 615.228394,232.930923 617.934753,243.475586 
	C612.007935,243.475586 606.674622,243.475586 600.609070,243.475586 
	C602.680420,235.993210 604.613586,229.010147 606.661133,221.640320 
z"/>
</svg>